# xmcd CD database file
#
# Track frame offsets:
#	150
#	40210
#	64230
#	90115
#	124979
#	141902
#	163800
#	194548
#	241048
#	272551
#	293470
#
# Disc length: 4348 seconds
#
# Revision: 0
# Processed by: cddbd v1.5.2PL0 Copyright (c) Steve Scherf et al.
# Submitted via: CDex 1.51
#
DISCID=9810fa0b
DTITLE=Didier Mouret - Mister KB3
DYEAR=2005
DGENRE=Jazz
TTITLE0=Mister KB3
TTITLE1=Jardin d'hiver
TTITLE2=Glory Alleluia
TTITLE3=Georgie Porgy
TTITLE4=Au coin de la rue
TTITLE5=P'tit truc à dire
TTITLE6=Simply Rhoda
TTITLE7=Body and soul
TTITLE8=Minuit moins le quart
TTITLE9=Hi Louiss
TTITLE10=Dans la nuit
EXTD=YEAR: 2005
EXTT0=
EXTT1=
EXTT2=
EXTT3=
EXTT4=
EXTT5=
EXTT6=
EXTT7=
EXTT8=
EXTT9=
EXTT10=
PLAYORDER=
